<svg xmlns="http://www.w3.org/2000/svg" viewBox="0 0 31.47 51.7">
  <title>资源 6</title>
  <g id="图层_2" data-name="图层 2">
    <g id="图层_1-2" data-name="图层 1">
      <path d="M26.93,47.52c-2.3,2.31-6,4.18-11.3,4.18S6.41,49.83,4.18,47.6C1,44.43.29,40.68,0,36.94H9.36c.5,4,2.38,6.34,6.27,6.34a6,6,0,0,0,4.46-1.66c1.66-1.66,2-4.39,2-7.63,0-5.91-1.73-9.22-6.27-9.22C12,24.77,10.3,26.93,9.65,29H1.08V0H30.31V8.42H9.58v11a11.77,11.77,0,0,1,7.7-2.59c4.25,0,7.49,1.37,9.58,3.46,4,4,4.61,8.85,4.61,13.68C31.47,39.75,30.67,43.78,26.93,47.52Z"/>
    </g>
  </g>
</svg>
