<svg xmlns="http://www.w3.org/2000/svg" viewBox="0 0 32.83 52.13">
  <title>资源 9</title>
  <g id="图层_2" data-name="图层 2">
    <g id="图层_1-2" data-name="图层 1">
      <path d="M16.42,52.13C7.34,52.13,0,46.73,0,36.79A13.28,13.28,0,0,1,6.41,25.27,12.73,12.73,0,0,1,.65,14.62C.65,5.54,7.85,0,16.42,0s15.7,5.54,15.7,14.62a12.72,12.72,0,0,1-5.77,10.65c2.81,1.88,6.48,5.26,6.48,11.52C32.83,46.73,25.49,52.13,16.42,52.13Zm0-22.61a7.1,7.1,0,1,0,7,7.13A7,7,0,0,0,16.42,29.52Zm0-21.1A6.31,6.31,0,0,0,10,14.91a6.27,6.27,0,0,0,6.41,6.48,6.2,6.2,0,0,0,6.33-6.48A6.25,6.25,0,0,0,16.42,8.42Z"/>
    </g>
  </g>
</svg>
