<svg xmlns="http://www.w3.org/2000/svg" viewBox="0 0 32.62 52.13">
  <title>资源 4</title>
  <g id="图层_2" data-name="图层 2">
    <g id="图层_1-2" data-name="图层 1">
      <path d="M16.35,52.13C8,52.13.14,47.74,0,37H9.36c.14,4.61,3.31,6.7,7,6.7,4,0,6.91-2.52,6.91-7.13,0-4.25-2.59-7.06-7.2-7.06H14.69V21.39h1.37c4.53,0,6.48-2.81,6.48-6.41,0-4.32-2.88-6.56-6.27-6.56s-6.12,2.31-6.33,6.2H.58C.79,5.47,7.63,0,16.27,0,25.35,0,31.9,6.05,31.9,14.69c0,5.54-2.52,8.71-5.91,10.51,3.68,1.95,6.63,5.47,6.63,11.67C32.62,47.09,25.13,52.13,16.35,52.13Z"/>
    </g>
  </g>
</svg>
